%TF.GenerationSoftware,KiCad,Pcbnew,(5.99.0-3349-g91c4a681c)*%
%TF.CreationDate,2020-09-24T22:53:03-07:00*%
%TF.ProjectId,mod_clip,6d6f645f-636c-4697-902e-6b696361645f,rev?*%
%TF.SameCoordinates,Original*%
%TF.FileFunction,Copper,L1,Top*%
%TF.FilePolarity,Positive*%
%FSLAX46Y46*%
G04 Gerber Fmt 4.6, Leading zero omitted, Abs format (unit mm)*
G04 Created by KiCad (PCBNEW (5.99.0-3349-g91c4a681c)) date 2020-09-24 22:53:03*
%MOMM*%
%LPD*%
G01*
G04 APERTURE LIST*
%TA.AperFunction,ComponentPad*%
%ADD10R,1.700000X1.700000*%
%TD*%
%TA.AperFunction,ComponentPad*%
%ADD11O,1.700000X1.700000*%
%TD*%
%TA.AperFunction,ComponentPad*%
%ADD12R,1.000000X1.000000*%
%TD*%
%TA.AperFunction,ComponentPad*%
%ADD13O,1.000000X1.000000*%
%TD*%
%TA.AperFunction,ViaPad*%
%ADD14C,0.800000*%
%TD*%
%TA.AperFunction,Conductor*%
%ADD15C,0.250000*%
%TD*%
G04 APERTURE END LIST*
D10*
%TO.P,J2,1,Pin_1*%
%TO.N,/W1*%
X82042000Y-151892000D03*
D11*
%TO.P,J2,2,Pin_2*%
%TO.N,/W2*%
X82042000Y-149352000D03*
%TO.P,J2,3,Pin_3*%
%TO.N,/W3*%
X84582000Y-151892000D03*
%TO.P,J2,4,Pin_4*%
%TO.N,/W4*%
X84582000Y-149352000D03*
%TO.P,J2,5,Pin_5*%
%TO.N,/W5*%
X87122000Y-151892000D03*
%TO.P,J2,6,Pin_6*%
%TO.N,/W6*%
X87122000Y-149352000D03*
%TO.P,J2,7,Pin_7*%
%TO.N,/W7*%
X89662000Y-151892000D03*
%TO.P,J2,8,Pin_8*%
%TO.N,/W8*%
X89662000Y-149352000D03*
%TO.P,J2,9,Pin_9*%
%TO.N,/W9*%
X92202000Y-151892000D03*
%TO.P,J2,10,Pin_10*%
%TO.N,/W10*%
X92202000Y-149352000D03*
%TO.P,J2,11,Pin_11*%
%TO.N,/W11*%
X94742000Y-151892000D03*
%TO.P,J2,12,Pin_12*%
%TO.N,/W12*%
X94742000Y-149352000D03*
%TO.P,J2,13,Pin_13*%
%TO.N,/W13*%
X97282000Y-151892000D03*
%TO.P,J2,14,Pin_14*%
%TO.N,/W14*%
X97282000Y-149352000D03*
%TO.P,J2,15,Pin_15*%
%TO.N,/W15*%
X99822000Y-151892000D03*
%TO.P,J2,16,Pin_16*%
%TO.N,/W16*%
X99822000Y-149352000D03*
%TD*%
D10*
%TO.P,J1,1,Pin_1*%
%TO.N,/W1*%
X82042000Y-145542000D03*
D11*
%TO.P,J1,2,Pin_2*%
%TO.N,/W2*%
X82042000Y-143002000D03*
%TO.P,J1,3,Pin_3*%
%TO.N,/W3*%
X84582000Y-145542000D03*
%TO.P,J1,4,Pin_4*%
%TO.N,/W4*%
X84582000Y-143002000D03*
%TO.P,J1,5,Pin_5*%
%TO.N,/W5*%
X87122000Y-145542000D03*
%TO.P,J1,6,Pin_6*%
%TO.N,/W6*%
X87122000Y-143002000D03*
%TO.P,J1,7,Pin_7*%
%TO.N,/W7*%
X89662000Y-145542000D03*
%TO.P,J1,8,Pin_8*%
%TO.N,/W8*%
X89662000Y-143002000D03*
%TO.P,J1,9,Pin_9*%
%TO.N,/W9*%
X92202000Y-145542000D03*
%TO.P,J1,10,Pin_10*%
%TO.N,/W10*%
X92202000Y-143002000D03*
%TO.P,J1,11,Pin_11*%
%TO.N,/W11*%
X94742000Y-145542000D03*
%TO.P,J1,12,Pin_12*%
%TO.N,/W12*%
X94742000Y-143002000D03*
%TO.P,J1,13,Pin_13*%
%TO.N,/W13*%
X97282000Y-145542000D03*
%TO.P,J1,14,Pin_14*%
%TO.N,/W14*%
X97282000Y-143002000D03*
%TO.P,J1,15,Pin_15*%
%TO.N,/W15*%
X99822000Y-145542000D03*
%TO.P,J1,16,Pin_16*%
%TO.N,/W16*%
X99822000Y-143002000D03*
%TD*%
D12*
%TO.P,J3,1,Pin_1*%
%TO.N,/W1*%
X86487000Y-139192000D03*
D13*
%TO.P,J3,2,Pin_2*%
%TO.N,/W2*%
X86487000Y-137922000D03*
%TO.P,J3,3,Pin_3*%
%TO.N,/W3*%
X87757000Y-139192000D03*
%TO.P,J3,4,Pin_4*%
%TO.N,/W4*%
X87757000Y-137922000D03*
%TO.P,J3,5,Pin_5*%
%TO.N,/W5*%
X89027000Y-139192000D03*
%TO.P,J3,6,Pin_6*%
%TO.N,/W6*%
X89027000Y-137922000D03*
%TO.P,J3,7,Pin_7*%
%TO.N,/W7*%
X90297000Y-139192000D03*
%TO.P,J3,8,Pin_8*%
%TO.N,/W8*%
X90297000Y-137922000D03*
%TO.P,J3,9,Pin_9*%
%TO.N,/W9*%
X91567000Y-139192000D03*
%TO.P,J3,10,Pin_10*%
%TO.N,/W10*%
X91567000Y-137922000D03*
%TO.P,J3,11,Pin_11*%
%TO.N,/W11*%
X92837000Y-139192000D03*
%TO.P,J3,12,Pin_12*%
%TO.N,/W12*%
X92837000Y-137922000D03*
%TO.P,J3,13,Pin_13*%
%TO.N,/W13*%
X94107000Y-139192000D03*
%TO.P,J3,14,Pin_14*%
%TO.N,/W14*%
X94107000Y-137922000D03*
%TO.P,J3,15,Pin_15*%
%TO.N,/W15*%
X95377000Y-139192000D03*
%TO.P,J3,16,Pin_16*%
%TO.N,/W16*%
X95377000Y-137922000D03*
%TD*%
D14*
%TO.N,/W4*%
X84886800Y-140360400D03*
%TO.N,/W14*%
X96901000Y-140335000D03*
%TO.N,/W12*%
X94688989Y-140836563D03*
%TO.N,/W10*%
X92075000Y-141351000D03*
%TO.N,/W6*%
X87211873Y-141093159D03*
%TD*%
D15*
%TO.N,/W4*%
X84886800Y-140360400D02*
X83921600Y-139750800D01*
X83921600Y-139750800D02*
X83870800Y-137871200D01*
X83870800Y-137871200D02*
X84582000Y-137096999D01*
X84582000Y-137096999D02*
X86931999Y-137096999D01*
X86931999Y-137096999D02*
X87757000Y-137922000D01*
%TO.N,/W6*%
X89027000Y-137922000D02*
X87751988Y-136646988D01*
X87751988Y-136646988D02*
X84175600Y-136646988D01*
X84175600Y-136646988D02*
X83362800Y-137464800D01*
X83362800Y-137464800D02*
X83439000Y-140716000D01*
X83439000Y-140716000D02*
X84328000Y-141376988D01*
X84328000Y-141376988D02*
X86928044Y-141376988D01*
X86928044Y-141376988D02*
X87211873Y-141093159D01*
%TO.N,/W8*%
X90297000Y-137922000D02*
X88571977Y-136196977D01*
X88571977Y-136196977D02*
X83891201Y-136196977D01*
X83891201Y-136196977D02*
X82898987Y-137189191D01*
X82898987Y-137189191D02*
X82898987Y-141097000D01*
X82898987Y-141097000D02*
X83693000Y-141826999D01*
X83693000Y-141826999D02*
X88486999Y-141826999D01*
X88486999Y-141826999D02*
X89662000Y-143002000D01*
%TO.N,/W16*%
X98457001Y-144366999D02*
X99822000Y-143002000D01*
X99822000Y-149352000D02*
X98457001Y-147987001D01*
X98457001Y-147987001D02*
X98457001Y-144366999D01*
%TO.N,/W15*%
X100997001Y-146717001D02*
X99822000Y-145542000D01*
X100997001Y-150716999D02*
X100997001Y-146717001D01*
X99822000Y-151892000D02*
X100997001Y-150716999D01*
%TO.N,/W14*%
X97282000Y-147281002D02*
X96106999Y-146106001D01*
X97282000Y-149352000D02*
X97282000Y-147281002D01*
X96106999Y-144177001D02*
X97282000Y-143002000D01*
X96901000Y-139827000D02*
X96901000Y-140335000D01*
X94155998Y-137922000D02*
X94980999Y-137096999D01*
X97155000Y-137922000D02*
X97155000Y-139573000D01*
X94980999Y-137096999D02*
X96329999Y-137096999D01*
X96106999Y-146106001D02*
X96106999Y-144177001D01*
X97155000Y-139573000D02*
X96901000Y-139827000D01*
X96329999Y-137096999D02*
X97155000Y-137922000D01*
%TO.N,/W13*%
X98006990Y-146266990D02*
X97282000Y-145542000D01*
X98646999Y-148813409D02*
X98006990Y-148173401D01*
X98646999Y-150527001D02*
X98646999Y-148813409D01*
X98006990Y-148173401D02*
X98006990Y-146266990D01*
X97282000Y-151892000D02*
X98646999Y-150527001D01*
%TO.N,/W12*%
X94742000Y-147281002D02*
X93566999Y-146106001D01*
X92837000Y-137922000D02*
X94112012Y-136646988D01*
X94742000Y-149352000D02*
X94742000Y-147281002D01*
X97072442Y-141236562D02*
X95088988Y-141236562D01*
X96516399Y-136646988D02*
X97626002Y-137756591D01*
X94112012Y-136646988D02*
X96516399Y-136646988D01*
X93566999Y-146106001D02*
X93566999Y-144177001D01*
X93566999Y-144177001D02*
X94742000Y-143002000D01*
X95088988Y-141236562D02*
X94688989Y-140836563D01*
X97626002Y-140683002D02*
X97072442Y-141236562D01*
X97626002Y-137756591D02*
X97626002Y-140683002D01*
%TO.N,/W11*%
X96106999Y-146906999D02*
X94742000Y-145542000D01*
X94742000Y-151892000D02*
X96106999Y-150527001D01*
X96106999Y-150527001D02*
X96106999Y-146906999D01*
%TO.N,/W10*%
X98076013Y-137570191D02*
X96702799Y-136196977D01*
X98076013Y-140869402D02*
X98076013Y-137570191D01*
X93292023Y-136196977D02*
X91567000Y-137922000D01*
X97181402Y-141764013D02*
X98076013Y-140869402D01*
X92615013Y-141764013D02*
X97181402Y-141764013D01*
X96702799Y-136196977D02*
X93292023Y-136196977D01*
X92075000Y-141351000D02*
X92615013Y-141764013D01*
%TO.N,/W9*%
X92202000Y-145542000D02*
X91026999Y-144366999D01*
X93566999Y-146906999D02*
X92202000Y-145542000D01*
X91026999Y-144366999D02*
X91026999Y-139732001D01*
X92202000Y-151892000D02*
X93566999Y-150527001D01*
X93566999Y-150527001D02*
X93566999Y-146906999D01*
X91026999Y-139732001D02*
X91567000Y-139192000D01*
%TO.N,/W8*%
X90837001Y-148176999D02*
X90837001Y-144813412D01*
X89662000Y-149352000D02*
X90837001Y-148176999D01*
X90837001Y-144813412D02*
X89662000Y-143638411D01*
%TO.N,/W7*%
X89662000Y-151892000D02*
X88486999Y-150716999D01*
X88486999Y-146717001D02*
X89662000Y-145542000D01*
X88486999Y-150716999D02*
X88486999Y-146717001D01*
%TO.N,/W6*%
X87122000Y-147281002D02*
X88297001Y-146106001D01*
X88297001Y-146106001D02*
X88297001Y-144813411D01*
X87122000Y-149352000D02*
X87122000Y-147281002D01*
X88297001Y-144813411D02*
X87122000Y-143638410D01*
%TO.N,/W5*%
X85946999Y-146717001D02*
X87122000Y-145542000D01*
X85946999Y-150716999D02*
X85946999Y-146717001D01*
X87122000Y-151892000D02*
X85946999Y-150716999D01*
%TO.N,/W4*%
X84582000Y-147281002D02*
X85757001Y-146106001D01*
X84582000Y-149352000D02*
X84582000Y-147281002D01*
X85757001Y-146106001D02*
X85757001Y-144177001D01*
X85757001Y-144177001D02*
X84582000Y-143002000D01*
%TO.N,/W3*%
X84582000Y-151892000D02*
X83217001Y-150527001D01*
X83217001Y-150527001D02*
X83217001Y-148813409D01*
X83857010Y-148173401D02*
X83857010Y-146266990D01*
X83857010Y-146266990D02*
X84582000Y-145542000D01*
X83217001Y-148813409D02*
X83857010Y-148173401D01*
%TO.N,/W2*%
X83406999Y-144621997D02*
X82042000Y-143256998D01*
X83406999Y-147987001D02*
X83406999Y-144621997D01*
X82042000Y-149352000D02*
X83406999Y-147987001D01*
%TO.N,/W1*%
X80866999Y-146717001D02*
X82042000Y-145542000D01*
X82042000Y-151892000D02*
X80866999Y-150716999D01*
X80866999Y-150716999D02*
X80866999Y-146717001D01*
%TD*%
M02*
