M48
; DRILL file {KiCad (5.99.0-3349-g91c4a681c)} date Thursday, September 24, 2020 at 10:53:06 PM
; FORMAT={-:-/ absolute / inch / decimal}
; #@! TF.CreationDate,2020-09-24T22:53:06-07:00
; #@! TF.GenerationSoftware,Kicad,Pcbnew,(5.99.0-3349-g91c4a681c)
FMAT,2
INCH
T1C0.0157
T2C0.0264
T3C0.0394
T4C0.1063
%
G90
G05
T1
X3.342Y-5.526
X3.4335Y-5.5548
X3.625Y-5.565
X3.7279Y-5.5447
X3.815Y-5.525
T2
X3.405Y-5.43
X3.405Y-5.48
X3.455Y-5.43
X3.455Y-5.48
X3.505Y-5.43
X3.505Y-5.48
X3.555Y-5.43
X3.555Y-5.48
X3.605Y-5.43
X3.605Y-5.48
X3.655Y-5.43
X3.655Y-5.48
X3.705Y-5.43
X3.705Y-5.48
X3.755Y-5.43
X3.755Y-5.48
T3
X3.23Y-5.63
X3.23Y-5.73
X3.33Y-5.63
X3.33Y-5.73
X3.43Y-5.63
X3.43Y-5.73
X3.53Y-5.63
X3.53Y-5.73
X3.63Y-5.63
X3.63Y-5.73
X3.73Y-5.63
X3.73Y-5.73
X3.83Y-5.63
X3.83Y-5.73
X3.93Y-5.63
X3.93Y-5.73
X3.23Y-5.88
X3.23Y-5.98
X3.33Y-5.88
X3.33Y-5.98
X3.43Y-5.88
X3.43Y-5.98
X3.53Y-5.88
X3.53Y-5.98
X3.63Y-5.88
X3.63Y-5.98
X3.73Y-5.88
X3.73Y-5.98
X3.83Y-5.88
X3.83Y-5.98
X3.93Y-5.88
X3.93Y-5.98
T4
X3.815Y-6.135
X3.315Y-6.135
T0
M30
