%TF.GenerationSoftware,KiCad,Pcbnew,(5.99.0-3349-g91c4a681c)*%
%TF.CreationDate,2020-09-24T22:53:04-07:00*%
%TF.ProjectId,mod_clip,6d6f645f-636c-4697-902e-6b696361645f,rev?*%
%TF.SameCoordinates,Original*%
%TF.FileFunction,Soldermask,Top*%
%TF.FilePolarity,Negative*%
%FSLAX46Y46*%
G04 Gerber Fmt 4.6, Leading zero omitted, Abs format (unit mm)*
G04 Created by KiCad (PCBNEW (5.99.0-3349-g91c4a681c)) date 2020-09-24 22:53:04*
%MOMM*%
%LPD*%
G01*
G04 APERTURE LIST*
%ADD10R,1.700000X1.700000*%
%ADD11O,1.700000X1.700000*%
%ADD12R,1.000000X1.000000*%
%ADD13O,1.000000X1.000000*%
%ADD14C,2.700000*%
G04 APERTURE END LIST*
D10*
%TO.C,J2*%
X82042000Y-151892000D03*
D11*
X82042000Y-149352000D03*
X84582000Y-151892000D03*
X84582000Y-149352000D03*
X87122000Y-151892000D03*
X87122000Y-149352000D03*
X89662000Y-151892000D03*
X89662000Y-149352000D03*
X92202000Y-151892000D03*
X92202000Y-149352000D03*
X94742000Y-151892000D03*
X94742000Y-149352000D03*
X97282000Y-151892000D03*
X97282000Y-149352000D03*
X99822000Y-151892000D03*
X99822000Y-149352000D03*
%TD*%
D10*
%TO.C,J1*%
X82042000Y-145542000D03*
D11*
X82042000Y-143002000D03*
X84582000Y-145542000D03*
X84582000Y-143002000D03*
X87122000Y-145542000D03*
X87122000Y-143002000D03*
X89662000Y-145542000D03*
X89662000Y-143002000D03*
X92202000Y-145542000D03*
X92202000Y-143002000D03*
X94742000Y-145542000D03*
X94742000Y-143002000D03*
X97282000Y-145542000D03*
X97282000Y-143002000D03*
X99822000Y-145542000D03*
X99822000Y-143002000D03*
%TD*%
D12*
%TO.C,J3*%
X86487000Y-139192000D03*
D13*
X86487000Y-137922000D03*
X87757000Y-139192000D03*
X87757000Y-137922000D03*
X89027000Y-139192000D03*
X89027000Y-137922000D03*
X90297000Y-139192000D03*
X90297000Y-137922000D03*
X91567000Y-139192000D03*
X91567000Y-137922000D03*
X92837000Y-139192000D03*
X92837000Y-137922000D03*
X94107000Y-139192000D03*
X94107000Y-137922000D03*
X95377000Y-139192000D03*
X95377000Y-137922000D03*
%TD*%
D14*
%TO.C,H2*%
X84201000Y-155829000D03*
%TD*%
%TO.C,H1*%
X96901000Y-155829000D03*
%TD*%
M02*
